<svg width="800" height="74" viewBox="0 0 800 74" fill="none" xmlns="http://www.w3.org/2000/svg">
<g clip-path="url(#clip0_8470_6554)">
<path d="M194.4 4.64917H172.8V68.9227H194.4V4.64917Z" fill="black"/>
<path d="M308.266 4.64917V69.1962H284.799L231.999 27.897V69.1962H210.399V4.64917H236.266L286.666 44.0338V4.64917H308.266Z" fill="black"/>
<path d="M408.534 22.1534H347.468V33.9141H406.134V50.5979H347.468V69.1962H326.134V4.64917H408.534V22.1534Z" fill="black"/>
<path d="M443.468 4.64917H421.868V68.9227H443.468V4.64917Z" fill="black"/>
<path d="M558.934 4.64917V69.1962H535.734L482.667 27.897V69.1962H461.334V4.64917H486.934L537.334 44.0338V4.64917H558.934Z" fill="black"/>
<path d="M597.333 38.0167C597.333 42.6663 598.4 46.4953 601.067 48.9569C603.733 51.6919 608.533 52.7859 615.2 52.7859H626.667C638.933 52.7859 645.067 47.8628 645.067 38.0167V4.64917H666.667V38.0167C666.667 47.3158 663.733 55.2475 658.133 60.991C652.267 67.0081 643.733 70.0167 631.733 70.0167H610.4C604.267 70.0167 598.933 69.1962 594.4 67.5552C589.867 65.9141 585.6 62.9056 581.6 58.5295C577.6 54.1534 575.733 47.3158 575.733 38.0167V4.64917H597.333V38.0167Z" fill="black"/>
<path d="M704.532 69.1962H683.199V4.64917H714.132L740.799 47.0423L766.932 4.64917H798.399V69.1962H777.065V25.709L750.132 69.1962H732.265L704.532 25.709V69.1962Z" fill="black"/>
<g clip-path="url(#clip1_8470_6554)">
<path fill-rule="evenodd" clip-rule="evenodd" d="M35.4638 20.8017C26.8586 20.8017 20.2243 27.6112 20.2243 36.9231C20.2243 45.9054 26.8157 52.8398 35.3044 53.0441C39.0655 53.0206 42.6902 51.5028 47.3806 47.5771C50.7753 44.736 54.1372 41.1649 58.0966 36.7857C54.2446 32.5317 50.9526 29.0505 47.6292 26.269C42.9017 22.3124 39.2569 20.8017 35.4638 20.8017ZM71.8757 21.4791C68.0913 17.3403 64.263 13.3723 60.3938 10.134C53.6261 4.46984 45.5893 0 35.4638 0C15.2377 0 0 16.5925 0 36.9231C0 57.031 15.2333 73.4811 35.0348 73.8445L35.125 73.8462H35.2152C45.3407 73.8462 53.3776 69.3763 60.1453 63.7121C64.0992 60.403 68.0104 56.3317 71.8757 52.095C75.7411 56.3317 79.6522 60.403 83.6062 63.7121C90.3739 69.3763 98.4107 73.8462 108.536 73.8462C128.449 73.8462 144 57.3213 144 36.9231C144 16.3917 128.073 0 108.288 0C98.1622 0 90.1254 4.46984 83.3576 10.134C79.4884 13.3723 75.6602 17.3403 71.8757 21.4791ZM85.6549 36.7857C89.6143 41.1649 92.9761 44.736 96.3708 47.5771C101.098 51.5338 104.743 53.0444 108.536 53.0444C116.957 53.0444 123.776 46.1673 123.776 36.9231C123.776 27.812 116.837 20.8017 108.288 20.8017C104.495 20.8017 100.85 22.3124 96.1223 26.269C92.7988 29.0505 89.5069 32.5317 85.6549 36.7857Z" fill="#D82828"/>
</g>
</g>
<defs>
<clipPath id="clip0_8470_6554">
<rect width="800" height="73.8462" fill="white"/>
</clipPath>
<clipPath id="clip1_8470_6554">
<rect width="144" height="73.8462" fill="white"/>
</clipPath>
</defs>
</svg>
